<svg width="18" height="16" viewBox="0 0 18 16" fill="none"
  xmlns="http://www.w3.org/2000/svg">
  <path d="M11.4545 16C11.1273 16 10.8 15.76 10.7182 15.44L6.54545 3.36L4.82727 8.32C4.74545 8.56 4.41818 8.8 4.09091 8.8H0.818182C0.327273 8.8 0 8.48 0 8C0 7.52 0.327273 7.2 0.818182 7.2H3.51818L5.80909 0.56C5.89091 0.24 6.21818 0 6.54545 0C6.87273 0 7.2 0.24 7.28182 0.56L11.4545 12.64L13.1727 7.68C13.2545 7.36 13.5818 7.12 13.9091 7.12H17.1818C17.6727 7.12 18 7.44 18 7.92C18 8.4 17.6727 8.72 17.1818 8.72H14.4818L12.1909 15.36C12.1091 15.76 11.7818 16 11.4545 16Z" fill="#4DB6AC"/>
</svg>
