<svg width="405" height="106" viewBox="0 0 405 106" fill="none" xmlns="http://www.w3.org/2000/svg">
<path d="M2 98C19.6376 94.6979 34.1412 74.562 55.1861 71.1774C66.4027 69.3735 75.3885 72.8844 85.4141 78.3399C95.4398 83.7953 93.4772 86.151 116.025 90.3567C134.632 93.8274 139.499 56.4081 157.732 57.8458C175.965 59.2835 184.398 14.294 203.648 18.0495C222.898 21.8051 226.744 12.0952 244.839 30.4974C262.934 48.8996 279.652 6.00532 302.367 2.24977C325.082 -1.50577 330.999 38.3549 341.779 36.8527C352.559 35.3505 362.265 63.7539 371.505 67.885C380.745 72.0161 383.365 57.0092 403 57.0092" stroke="#5E5CE6" stroke-width="4" stroke-linecap="round" stroke-linejoin="round"/>
<path d="M57.1861 71.0815C36.1412 74.4614 21.6376 94.5693 4 97.8669V106H405V56.9329C385.365 56.9329 382.745 71.919 373.505 67.7936C364.265 63.6682 354.559 35.3043 343.779 36.8044C332.999 38.3045 327.082 -1.50091 304.367 2.24943C281.652 5.99977 264.934 48.8345 246.839 30.4579C228.744 12.0812 224.898 21.7776 205.648 18.0272C186.398 14.2769 177.965 59.204 159.732 57.7683C141.499 56.3326 136.632 93.7 118.025 90.2342C95.4772 86.0342 97.4398 83.6818 87.4141 78.234C77.3885 72.7861 68.4027 69.28 57.1861 71.0815Z" fill="url(#paint0_linear)"/>
<defs>
<linearGradient id="paint0_linear" x1="204.5" y1="2" x2="204.5" y2="149.503" gradientUnits="userSpaceOnUse">
<stop stop-color="#5E5CE6" stop-opacity="0.4"/>
<stop offset="0.998978" stop-opacity="0"/>
</linearGradient>
</defs>
</svg>
